<svg width="29" height="28" viewBox="0 0 29 28" fill="none" xmlns="http://www.w3.org/2000/svg">
<path d="M1.5 1.5H6.11333L9.20427 16.826C9.30973 17.3529 9.5986 17.8263 10.0203 18.1632C10.442 18.5001 10.9697 18.679 11.5109 18.6688H22.7213C23.2626 18.679 23.7903 18.5001 24.212 18.1632C24.6337 17.8263 24.9225 17.3529 25.028 16.826L26.8733 7.22292H7.26667M11.88 24.3917C11.88 25.0238 11.3636 25.5363 10.7267 25.5363C10.0897 25.5363 9.57333 25.0238 9.57333 24.3917C9.57333 23.7595 10.0897 23.2471 10.7267 23.2471C11.3636 23.2471 11.88 23.7595 11.88 24.3917ZM24.5667 24.3917C24.5667 25.0238 24.0503 25.5363 23.4133 25.5363C22.7764 25.5363 22.26 25.0238 22.26 24.3917C22.26 23.7595 22.7764 23.2471 23.4133 23.2471C24.0503 23.2471 24.5667 23.7595 24.5667 24.3917Z" stroke="#1E1E1E" stroke-width="3" stroke-linecap="round" stroke-linejoin="round"/>
</svg>
