<svg width="21" height="21" viewBox="0 0 21 21" fill="none" xmlns="http://www.w3.org/2000/svg">
<path d="M19.1428 20.6053L11.8778 13.3934C11.3012 13.8513 10.6381 14.2138 9.88854 14.4809C9.13897 14.748 8.34135 14.8816 7.49569 14.8816C5.40074 14.8816 3.62772 14.1613 2.17663 12.7209C0.725544 11.2804 0 9.52039 0 7.44079C0 5.36118 0.725544 3.60115 2.17663 2.16069C3.62772 0.72023 5.40074 0 7.49569 0C9.59063 0 11.3637 0.72023 12.8147 2.16069C14.2658 3.60115 14.9914 5.36118 14.9914 7.44079C14.9914 8.28026 14.8568 9.07204 14.5878 9.81612C14.3187 10.5602 13.9535 11.2184 13.4922 11.7908L20.7573 19.0026L19.1428 20.6053ZM7.49569 12.5921C8.93716 12.5921 10.1624 12.0913 11.1715 11.0896C12.1805 10.088 12.685 8.87171 12.685 7.44079C12.685 6.00987 12.1805 4.79359 11.1715 3.79194C10.1624 2.7903 8.93716 2.28947 7.49569 2.28947C6.05421 2.28947 4.82895 2.7903 3.81992 3.79194C2.81088 4.79359 2.30636 6.00987 2.30636 7.44079C2.30636 8.87171 2.81088 10.088 3.81992 11.0896C4.82895 12.0913 6.05421 12.5921 7.49569 12.5921Z" fill="#1D1B20"/>
</svg>